<?xml version="1.0" standalone="no"?>
<!DOCTYPE svg PUBLIC "-//W3C//DTD SVG 20010904//EN"
 "http://www.w3.org/TR/2001/REC-SVG-20010904/DTD/svg10.dtd">
<svg version="1.0" xmlns="http://www.w3.org/2000/svg"
 width="700.000000pt" height="700.000000pt" viewBox="0 0 700.000000 700.000000"
 preserveAspectRatio="xMidYMid meet">
<metadata>
Created by potrace 1.14, written by Peter Selinger 2001-2017
</metadata>
<g transform="translate(0.000000,700.000000) scale(0.100000,-0.100000)"
fill="#000000" stroke="none">
<path d="M1026 6989 c-145 -34 -273 -168 -305 -317 -16 -75 -16 -6268 0 -6344
33 -155 161 -284 317 -317 75 -16 4849 -16 4924 0 156 33 284 162 317 317 16
76 16 6269 0 6344 -32 152 -150 273 -303 314 -43 11 -452 14 -2481 13 -1424
-1 -2446 -5 -2469 -10z m4499 -460 c76 -28 156 -108 184 -184 l21 -56 0 -2789
0 -2789 -21 -56 c-28 -76 -108 -156 -184 -184 l-56 -21 -1969 0 -1969 0 -56
21 c-76 28 -156 108 -184 184 l-21 56 0 2789 0 2789 21 56 c28 76 106 155 179
183 l55 21 1972 0 1972 1 56 -21z"/>
<path d="M3375 5074 c-228 -35 -390 -98 -542 -213 -139 -105 -241 -255 -284
-418 -28 -108 -28 -278 0 -387 56 -214 214 -392 459 -519 97 -50 434 -201 744
-335 198 -85 298 -164 350 -278 20 -41 23 -66 23 -159 0 -98 -3 -116 -27 -167
-53 -113 -166 -196 -327 -240 -62 -17 -106 -21 -241 -22 -146 0 -177 3 -270
26 -205 51 -410 159 -564 296 l-40 35 -37 -42 c-21 -23 -82 -94 -135 -158
l-98 -116 49 -45 c201 -183 459 -314 737 -373 121 -26 399 -36 532 -20 390 49
686 239 822 526 66 141 91 291 74 444 -33 290 -191 493 -504 646 -117 57 -497
224 -701 307 -155 64 -238 113 -301 180 -63 67 -79 97 -94 175 -36 203 93 378
324 438 138 35 356 28 518 -16 102 -28 240 -97 336 -168 45 -34 84 -61 86 -61
2 0 57 66 122 146 l119 147 -55 49 c-155 140 -384 253 -610 303 -73 16 -396
29 -465 19z"/>
</g>
</svg>
