<?xml version="1.0" standalone="no"?>
<!DOCTYPE svg PUBLIC "-//W3C//DTD SVG 20010904//EN"
 "http://www.w3.org/TR/2001/REC-SVG-20010904/DTD/svg10.dtd">
<svg version="1.0" xmlns="http://www.w3.org/2000/svg"
 width="700.000000pt" height="700.000000pt" viewBox="0 0 700.000000 700.000000"
 preserveAspectRatio="xMidYMid meet">
<metadata>
Created by potrace 1.14, written by Peter Selinger 2001-2017
</metadata>
<g transform="translate(0.000000,700.000000) scale(0.100000,-0.100000)"
fill="#000000" stroke="none">
<path d="M3290 5723 c-25 -2 -94 -10 -155 -19 -947 -131 -1682 -891 -1841
-1904 -28 -176 -26 -513 5 -683 117 -663 581 -1278 1211 -1605 344 -179 686
-253 1100 -239 548 19 1055 232 1444 607 436 420 651 894 673 1485 14 391 -64
748 -244 1110 -292 586 -818 1033 -1383 1175 -263 66 -554 92 -810 73z m448
-84 c399 -44 730 -197 817 -380 16 -34 16 -37 -14 -116 -35 -89 -114 -221
-190 -317 -65 -80 -90 -103 -126 -110 -37 -7 -388 -33 -586 -42 l-145 -7 -101
104 c-172 178 -314 342 -335 388 -27 58 -20 134 18 199 64 109 264 275 344
285 72 8 224 7 318 -4z m1122 -537 c76 -38 113 -65 189 -137 97 -93 190 -206
256 -310 111 -175 219 -452 252 -643 16 -92 16 -103 0 -166 -9 -37 -30 -96
-47 -130 -41 -83 -183 -272 -211 -281 -32 -10 -370 161 -540 273 -74 49 -139
96 -145 103 -39 49 -236 627 -259 760 -9 50 18 151 59 219 18 30 67 102 110
159 42 57 86 121 97 142 24 48 63 71 109 64 19 -3 78 -27 130 -53z m-1908 18
c30 -9 64 -41 173 -163 75 -84 156 -181 180 -217 48 -72 85 -170 85 -225 0
-20 -48 -180 -107 -355 l-107 -319 -225 -124 c-124 -69 -248 -137 -276 -152
-27 -14 -68 -37 -90 -50 -28 -18 -55 -25 -90 -25 -85 0 -127 28 -280 183 -147
149 -209 230 -231 303 -13 42 -11 49 55 251 105 318 162 440 270 575 31 40 82
92 112 115 77 59 248 151 344 185 86 30 128 34 187 18z m-862 -135 c38 -20 75
-70 91 -122 12 -42 11 -44 -54 -175 -106 -216 -177 -407 -241 -657 -37 -143
-53 -174 -138 -267 -85 -93 -192 -226 -217 -267 -38 -62 -90 -76 -130 -33 -33
35 -40 84 -30 204 31 378 152 703 396 1062 171 252 187 270 256 270 21 0 51
-7 67 -15z m1253 -1332 c109 -56 227 -143 378 -278 l110 -99 -6 -51 c-55 -429
-112 -736 -145 -790 -57 -93 -168 -159 -400 -240 -125 -43 -141 -46 -210 -43
-128 8 -218 53 -454 229 -155 116 -190 153 -238 255 -41 88 -48 186 -23 346
33 219 64 305 139 387 50 54 92 81 182 117 38 15 116 53 174 84 176 96 260
127 353 129 40 1 66 -8 140 -46z m1413 -43 c169 -84 334 -185 433 -262 71 -56
69 -38 46 -288 -20 -213 -42 -333 -73 -395 -42 -84 -168 -198 -365 -330 -254
-172 -323 -213 -365 -220 -84 -14 -327 89 -535 228 l-108 72 6 65 c4 36 27
187 51 335 25 149 51 309 59 358 7 48 20 98 28 110 19 29 314 264 400 317 74
46 186 89 233 90 20 0 91 -30 190 -80z m-3301 -377 c41 -229 125 -478 235
-693 32 -63 61 -125 65 -137 8 -27 -4 -113 -15 -113 -10 0 -114 178 -172 295
-59 118 -94 208 -130 330 -64 221 -75 340 -37 389 11 14 24 26 29 26 4 0 15
-44 25 -97z m3900 -669 c30 -12 37 -52 20 -110 -19 -67 -146 -258 -248 -374
-170 -194 -411 -370 -686 -503 -112 -55 -132 -61 -200 -64 -64 -4 -81 -1 -108
16 -18 11 -33 27 -33 35 0 19 139 215 222 313 87 103 126 136 308 255 80 53
239 163 354 246 116 83 228 160 250 171 41 21 90 27 121 15z m-3019 -56 c22
-15 129 -99 239 -187 110 -88 239 -184 288 -212 70 -42 95 -63 123 -106 101
-152 139 -329 92 -423 -29 -56 -67 -69 -218 -77 -99 -5 -110 -3 -186 25 -241
90 -472 241 -679 446 -137 135 -145 154 -152 336 l-5 125 153 53 c141 48 160
53 230 50 63 -3 82 -7 115 -30z m1482 -1038 c130 -19 172 -32 172 -50 0 -15
-12 -18 -116 -34 -332 -52 -573 -48 -759 11 l-80 26 36 12 c185 65 466 78 747
35z"/>
</g>
</svg>
